HIERARCHY
ROOT Hips
{
  OFFSET 5.72205e-005 65.662 3.42586
  CHANNELS 6 Xposition Yposition Zposition Zrotation Xrotation Yrotation
  JOINT Chest
  {
    OFFSET 0 8.7983 -4.7612
    CHANNELS 6 Xposition Yposition Zposition Zrotation Xrotation Yrotation
    JOINT Chest2
    {
      OFFSET 0 8.0291 0.4195
      CHANNELS 6 Xposition Yposition Zposition Zrotation Xrotation Yrotation
      JOINT Chest3
      {
        OFFSET 0 9.9351 -2.2114
        CHANNELS 6 Xposition Yposition Zposition Zrotation Xrotation Yrotation
        JOINT Neck
        {
          OFFSET 0 22.3885 -0.4656
          CHANNELS 6 Xposition Yposition Zposition Zrotation Xrotation Yrotation
          JOINT Head
          {
            OFFSET -0.0001 12.643 3.4389
            CHANNELS 6 Xposition Yposition Zposition Zrotation Xrotation Yrotation
            End Site
            {
              OFFSET 0.0001 17.6655 0.5274
            }
          }
        }
        JOINT LeftCollar
        {
          OFFSET 2.2603 21.606 7.4023
          CHANNELS 6 Xposition Yposition Zposition Zrotation Xrotation Yrotation
          JOINT LeftShoulder
          {
            OFFSET 13.5163 -1.1332 -5.0146
            CHANNELS 6 Xposition Yposition Zposition Zrotation Xrotation Yrotation
            JOINT LeftElbow
            {
              OFFSET -0.0995 -28.05 -0.2431
              CHANNELS 6 Xposition Yposition Zposition Zrotation Xrotation Yrotation
              JOINT LeftWrist
              {
                OFFSET 0.0679 -23.3996 -0.1402
                CHANNELS 6 Xposition Yposition Zposition Zrotation Xrotation Yrotation
                JOINT LeftFinger1
                {
                  OFFSET 0.7932 -9.069 2.5189
                  CHANNELS 6 Xposition Yposition Zposition Zrotation Xrotation Yrotation
                  JOINT LeftFinger11
                  {
                    OFFSET -0.8272 -3.3923 0.5977
                    CHANNELS 6 Xposition Yposition Zposition Zrotation Xrotation Yrotation
                    JOINT LeftFinger12
                    {
                      OFFSET -0.5649 -2.3158 0.4082
                      CHANNELS 6 Xposition Yposition Zposition Zrotation Xrotation Yrotation
                      End Site
                      {
                        OFFSET -0.4919 -1.6479 0.2673
                      }
                    }
                  }
                }
                JOINT LeftFinger2
                {
                  OFFSET 0.9159 -9.2044 0.2193
                  CHANNELS 6 Xposition Yposition Zposition Zrotation Xrotation Yrotation
                  JOINT LeftFinger21
                  {
                    OFFSET 0.0117 -4.1944 -0.0248
                    CHANNELS 6 Xposition Yposition Zposition Zrotation Xrotation Yrotation
                    JOINT LeftFinger22
                    {
                      OFFSET 0.0071 -2.3249 -0.0142
                      CHANNELS 6 Xposition Yposition Zposition Zrotation Xrotation Yrotation
                      End Site
                      {
                        OFFSET -0.1475 -2.0882 0.0028
                      }
                    }
                  }
                }
                JOINT LeftFinger3
                {
                  OFFSET 0.6113 -8.7231 -2.0637
                  CHANNELS 6 Xposition Yposition Zposition Zrotation Xrotation Yrotation
                  JOINT LeftFinger31
                  {
                    OFFSET -0.1927 -3.8059 -0.2383
                    CHANNELS 6 Xposition Yposition Zposition Zrotation Xrotation Yrotation
                    JOINT LeftFinger32
                    {
                      OFFSET -0.1091 -2.1688 -0.1362
                      CHANNELS 6 Xposition Yposition Zposition Zrotation Xrotation Yrotation
                      End Site
                      {
                        OFFSET -0.2358 -1.9176 -0.0906
                      }
                    }
                  }
                }
                JOINT LeftFinger4
                {
                  OFFSET -0.6151 -8.0947 -3.5641
                  CHANNELS 6 Xposition Yposition Zposition Zrotation Xrotation Yrotation
                  JOINT LeftFinger41
                  {
                    OFFSET -0.4882 -2.341 -0.6462
                    CHANNELS 6 Xposition Yposition Zposition Zrotation Xrotation Yrotation
                    JOINT LeftFinger42
                    {
                      OFFSET -0.3575 -1.7167 -0.4742
                      CHANNELS 6 Xposition Yposition Zposition Zrotation Xrotation Yrotation
                      End Site
                      {
                        OFFSET -0.4187 -1.5237 -0.3496
                      }
                    }
                  }
                }
                JOINT LeftFinger0
                {
                  OFFSET -1.42 -1.8761 1.4223
                  CHANNELS 6 Xposition Yposition Zposition Zrotation Xrotation Yrotation
                  JOINT LeftFinger01
                  {
                    OFFSET -1.1471 -3.4929 2.6334
                    CHANNELS 6 Xposition Yposition Zposition Zrotation Xrotation Yrotation
                    JOINT LeftFinger02
                    {
                      OFFSET -0.823 -2.3 1.6571
                      CHANNELS 6 Xposition Yposition Zposition Zrotation Xrotation Yrotation
                      End Site
                      {
                        OFFSET -0.5822 -1.6914 1.1582
                      }
                    }
                  }
                }
              }
            }
          }
        }
        JOINT RightCollar
        {
          OFFSET -2.2603 21.606 7.4023
          CHANNELS 6 Xposition Yposition Zposition Zrotation Xrotation Yrotation
          JOINT RightShoulder
          {
            OFFSET -13.5187 -1.1334 -5.0155
            CHANNELS 6 Xposition Yposition Zposition Zrotation Xrotation Yrotation
            JOINT RightElbow
            {
              OFFSET 0.0994 -28.0499 -0.2431
              CHANNELS 6 Xposition Yposition Zposition Zrotation Xrotation Yrotation
              JOINT RightWrist
              {
                OFFSET -0.0679 -23.3996 -0.1402
                CHANNELS 6 Xposition Yposition Zposition Zrotation Xrotation Yrotation
                JOINT RightFinger1
                {
                  OFFSET -0.7932 -9.0691 2.5189
                  CHANNELS 6 Xposition Yposition Zposition Zrotation Xrotation Yrotation
                  JOINT RightFinger11
                  {
                    OFFSET 0.8272 -3.3923 0.5977
                    CHANNELS 6 Xposition Yposition Zposition Zrotation Xrotation Yrotation
                    JOINT RightFinger12
                    {
                      OFFSET 0.565 -2.3158 0.4082
                      CHANNELS 6 Xposition Yposition Zposition Zrotation Xrotation Yrotation
                      End Site
                      {
                        OFFSET 0.4919 -1.6479 0.2673
                      }
                    }
                  }
                }
                JOINT RightFinger2
                {
                  OFFSET -0.916 -9.2044 0.2193
                  CHANNELS 6 Xposition Yposition Zposition Zrotation Xrotation Yrotation
                  JOINT RightFinger21
                  {
                    OFFSET -0.0117 -4.1944 -0.0248
                    CHANNELS 6 Xposition Yposition Zposition Zrotation Xrotation Yrotation
                    JOINT RightFinger22
                    {
                      OFFSET -0.0071 -2.3249 -0.0142
                      CHANNELS 6 Xposition Yposition Zposition Zrotation Xrotation Yrotation
                      End Site
                      {
                        OFFSET 0.1475 -2.0882 0.0028
                      }
                    }
                  }
                }
                JOINT RightFinger3
                {
                  OFFSET -0.6113 -8.7231 -2.0637
                  CHANNELS 6 Xposition Yposition Zposition Zrotation Xrotation Yrotation
                  JOINT RightFinger31
                  {
                    OFFSET 0.1927 -3.8059 -0.2383
                    CHANNELS 6 Xposition Yposition Zposition Zrotation Xrotation Yrotation
                    JOINT RightFinger32
                    {
                      OFFSET 0.1091 -2.1688 -0.1362
                      CHANNELS 6 Xposition Yposition Zposition Zrotation Xrotation Yrotation
                      End Site
                      {
                        OFFSET 0.2358 -1.9176 -0.0906
                      }
                    }
                  }
                }
                JOINT RightFinger4
                {
                  OFFSET 0.6151 -8.0947 -3.564
                  CHANNELS 6 Xposition Yposition Zposition Zrotation Xrotation Yrotation
                  JOINT RightFinger41
                  {
                    OFFSET 0.4882 -2.341 -0.6462
                    CHANNELS 6 Xposition Yposition Zposition Zrotation Xrotation Yrotation
                    JOINT RightFinger42
                    {
                      OFFSET 0.3574 -1.7166 -0.4742
                      CHANNELS 6 Xposition Yposition Zposition Zrotation Xrotation Yrotation
                      End Site
                      {
                        OFFSET 0.4187 -1.5237 -0.3496
                      }
                    }
                  }
                }
                JOINT RightFinger0
                {
                  OFFSET 1.4199 -1.8761 1.4221
                  CHANNELS 6 Xposition Yposition Zposition Zrotation Xrotation Yrotation
                  JOINT RightFinger01
                  {
                    OFFSET 1.1472 -3.4929 2.6336
                    CHANNELS 6 Xposition Yposition Zposition Zrotation Xrotation Yrotation
                    JOINT RightFinger02
                    {
                      OFFSET 0.8229 -2.3 1.6571
                      CHANNELS 6 Xposition Yposition Zposition Zrotation Xrotation Yrotation
                      End Site
                      {
                        OFFSET 0.5822 -1.6914 1.1582
                      }
                    }
                  }
                }
              }
            }
          }
        }
      }
    }
  }
  JOINT RightHip
  {
    OFFSET -9.412 3.9771 -0.7758
    CHANNELS 6 Xposition Yposition Zposition Zrotation Xrotation Yrotation
    JOINT RightKnee
    {
      OFFSET -0.7531 -40.938 0
      CHANNELS 6 Xposition Yposition Zposition Zrotation Xrotation Yrotation
      JOINT RightAnkle
      {
        OFFSET 0 -40.1986 0
        CHANNELS 6 Xposition Yposition Zposition Zrotation Xrotation Yrotation
        JOINT RightToe
        {
          OFFSET 0 -4.4182 9.239
          CHANNELS 6 Xposition Yposition Zposition Zrotation Xrotation Yrotation
          End Site
          {
            OFFSET 0 0 6.1981
          }
        }
      }
    }
  }
  JOINT LeftHip
  {
    OFFSET 9.4119 3.9773 -0.7758
    CHANNELS 6 Xposition Yposition Zposition Zrotation Xrotation Yrotation
    JOINT LeftKnee
    {
      OFFSET 0.7532 -40.9383 0
      CHANNELS 6 Xposition Yposition Zposition Zrotation Xrotation Yrotation
      JOINT LeftAnkle
      {
        OFFSET 0 -40.1986 0
        CHANNELS 6 Xposition Yposition Zposition Zrotation Xrotation Yrotation
        JOINT LeftToe
        {
          OFFSET 0 -4.4182 9.239
          CHANNELS 6 Xposition Yposition Zposition Zrotation Xrotation Yrotation
          End Site
          {
            OFFSET 0 0 6.1981
          }
        }
      }
    }
  }
}
MOTION
Frames:	4
Frame Time:	0.0333333
0.495481 0.567459 67.5364 -99.5468 -89.9887 -99.5356 0 8.7983 -4.7612 0.294644 1.76017 -0.152354 0 8.0291 0.4195 0.594395 3.5195 -0.31399 5.55111e-017 9.9351 -2.2114 0.594395 3.5195 -0.31399 0 22.3885 -0.4656 1.19289e-005 -1.69525 -6.56042e-006 -0.0001 12.643 3.4389 1.21721e-007 -4.68626 -7.78833e-008 2.2603 21.606 7.4023 11.8665 -23.957 -22.0331 13.5163 -1.1332 -5.0146 49.1978 -33.7861 79.1584 -0.0995 -28.05 -0.2431 -160.49 -47.4551 -140.891 0.0679 -23.3996 -0.1402 -10.7097 20.4545 8.41608 0.7932 -9.069 2.5189 7.24157e-033 -6.95746e-016 5.96354e-016 -0.8272 -3.3923 0.5977 -0 -4.96962e-016 -0 -0.5649 -2.3158 0.4082 4.31046e-034 -9.93923e-017 2.48481e-016 0.9159 -9.2044 0.2193 7.24157e-033 -6.95746e-016 5.96354e-016 0.0117 -4.1944 -0.0248 -0.012834 0.0023225 8.57581e-005 0.0071 -2.3249 -0.0142 8.27607e-032 1.59028e-015 -2.98177e-015 0.6113 -8.7231 -2.0637 7.24157e-033 -6.95746e-016 5.96354e-016 -0.1927 -3.8059 -0.2383 -0.0160445 0.00298999 0.00085364 -0.1091 -2.1688 -0.1362 -5.7896e-006 -5.29344e-007 -2.26377e-006 -0.6151 -8.0947 -3.5641 7.24157e-033 -6.95746e-016 5.96354e-016 -0.4882 -2.341 -0.6462 -0.0125697 0.00312829 0.00282364 -0.3575 -1.7167 -0.4742 -6.36111e-015 -9.93923e-017 -1.68967e-015 -1.42 -1.8761 1.4223 7.24157e-033 -6.95746e-016 5.96354e-016 -1.1471 -3.4929 2.6334 -0 -4.96962e-016 -0 -0.823 -2.3 1.6571 4.31046e-034 -9.93923e-017 2.48481e-016 -2.2603 21.606 7.4023 -12.8543 -23.9227 16.0022 -13.5187 -1.1334 -5.0155 -45.3268 -39.3577 -73.9746 0.0994 -28.0499 -0.2431 149.388 -63.269 130.149 -0.0679 -23.3996 -0.1402 20.909 14.8499 -10.0482 -0.7932 -9.0691 2.5189 3.18055e-015 -3.18055e-015 -7.95139e-016 0.8272 -3.3923 0.5977 -3.22802e-006 7.94468e-006 2.09865e-007 0.565 -2.3158 0.4082 3.18055e-015 0 -7.95139e-016 -0.916 -9.2044 0.2193 3.18055e-015 -3.18055e-015 -7.95139e-016 -0.0117 -4.1944 -0.0248 0.0129363 0.0023286 -8.8868e-005 -0.0071 -2.3249 -0.0142 -3.18055e-015 1.59028e-015 -7.95139e-016 -0.6113 -8.7231 -2.0637 3.18055e-015 -3.18055e-015 -7.95139e-016 0.1927 -3.8059 -0.2383 0.0163511 0.00305493 -0.000877573 0.1091 -2.1688 -0.1362 -0 0 1.59028e-015 0.6151 -8.0947 -3.564 3.18055e-015 -3.18055e-015 -7.95139e-016 0.4882 -2.341 -0.6462 0.0145882 0.00369556 -0.00326229 0.3574 -1.7166 -0.4742 -3.18055e-015 -1.59028e-015 -0 1.4199 -1.8761 1.4221 3.18055e-015 -3.18055e-015 -7.95139e-016 1.1472 -3.4929 2.6336 -3.22802e-006 7.94468e-006 2.09865e-007 0.8229 -2.3 1.6571 3.18055e-015 0 -7.95139e-016 -9.412 3.9771 -0.7758 -13.6369 -32.9491 -11.56 -0.7531 -40.938 0 -130.049 84.912 127.952 -1.77636e-015 -40.1986 0 0.843528 27.1037 -5.52676 -3.55271e-015 -4.4182 9.239 1.78906e-015 7.95139e-016 6.36111e-015 9.4119 3.9773 -0.7758 13.632 -32.9489 11.5547 0.7532 -40.9383 0 130.051 84.9121 -127.959 0 -40.1986 0 -0.845234 27.1031 5.52339 -3.55271e-015 -4.4182 9.239 -1.22874e-007 5.20305e-008 -1.63559e-006 
0.495481 0.567459 67.665 -99.5468 -89.9887 -99.5357 0 8.7983 -4.7612 0.294882 1.89016 -0.151924 -2.77556e-017 8.0291 0.4195 0.595266 3.77951 -0.313843 1.11022e-016 9.9351 -2.2114 0.595266 3.77952 -0.313842 0 22.3885 -0.4656 -7.06474e-006 -2.37869 3.63104e-006 -0.0001 12.643 3.4389 -2.95334e-007 -5.36969 -9.3031e-008 2.2603 21.606 7.4023 12.1153 -24.7252 -21.7687 13.5163 -1.1332 -5.0146 48.8578 -33.9486 79.2544 -0.0995 -28.05 -0.2431 -160.287 -47.8296 -140.713 0.0679 -23.3996 -0.1402 -11.5359 18.9071 9.16535 0.7932 -9.069 2.5189 -6.36111e-015 5.96354e-016 -1.78906e-015 -0.8272 -3.3923 0.5977 -3.18055e-015 3.97569e-016 -9.93923e-016 -0.5649 -2.3158 0.4082 -6.36111e-015 1.98785e-016 2.98177e-016 0.9159 -9.2044 0.2193 -6.36111e-015 5.96354e-016 -1.78906e-015 0.0117 -4.1944 -0.0248 -0.0128187 0.00233246 8.75085e-005 0.0071 -2.3249 -0.0142 2.68972e-031 -1.2921e-014 1.19271e-015 0.6113 -8.7231 -2.0637 -6.36111e-015 5.96354e-016 -1.78906e-015 -0.1927 -3.8059 -0.2383 -0.0160714 0.00300157 0.000851046 -0.1091 -2.1688 -0.1362 3.18055e-015 -5.96354e-016 8.94531e-016 -0.6151 -8.0947 -3.5641 -6.36111e-015 5.96354e-016 -1.78906e-015 -0.4882 -2.341 -0.6462 -0.0125967 0.00313406 0.00283374 -0.3575 -1.7167 -0.4742 3.18055e-015 -5.96354e-016 8.94531e-016 -1.42 -1.8761 1.4223 -6.36111e-015 5.96354e-016 -1.78906e-015 -1.1471 -3.4929 2.6334 -3.18055e-015 3.97569e-016 -9.93923e-016 -0.823 -2.3 1.6571 -6.36111e-015 1.98785e-016 2.98177e-016 -2.2603 21.606 7.4023 -13.1104 -24.6873 15.732 -13.5187 -1.1334 -5.0155 -45.3586 -39.1529 -73.9728 0.0994 -28.0499 -0.2431 149.044 -63.5264 129.822 -0.0679 -23.3996 -0.1402 21.7126 13.268 -10.444 -0.7932 -9.0691 2.5189 0 0 -1.59028e-015 0.8272 -3.3923 0.5977 -3.18055e-015 0 -1.59028e-015 0.565 -2.3158 0.4082 -6.36111e-015 0 -7.95139e-016 -0.916 -9.2044 0.2193 0 0 -1.59028e-015 -0.0117 -4.1944 -0.0248 0.012972 0.00232813 -9.0428e-005 -0.0071 -2.3249 -0.0142 6.36111e-015 0 -0 -0.6113 -8.7231 -2.0637 0 0 -1.59028e-015 0.1927 -3.8059 -0.2383 0.0163454 0.00302608 -0.000880011 0.1091 -2.1688 -0.1362 -0 0 2.38542e-015 0.6151 -8.0947 -3.564 0 0 -1.59028e-015 0.4882 -2.341 -0.6462 0.0145782 0.00367051 -0.00325404 0.3574 -1.7166 -0.4742 -3.18055e-015 -3.18055e-015 -0 1.4199 -1.8761 1.4221 0 0 -1.59028e-015 1.1472 -3.4929 2.6336 -3.18055e-015 0 -1.59028e-015 0.8229 -2.3 1.6571 -6.36111e-015 0 -7.95139e-016 -9.412 3.9771 -0.7758 -13.6369 -32.9491 -11.56 -0.7531 -40.938 0 -130.049 84.912 127.952 0 -40.1986 -1.42109e-014 0.84353 27.1037 -5.52676 -3.55271e-015 -4.4182 9.239 1.59028e-015 -7.95139e-016 -0 9.4119 3.9773 -0.7758 13.632 -32.9489 11.5547 0.7532 -40.9383 0 130.051 84.9121 -127.96 0 -40.1986 0 -0.845238 27.103 5.5234 3.55271e-015 -4.4182 9.239 -1.08999e-006 -3.69219e-007 -3.24382e-006 
0.495481 0.567459 67.7935 -99.5468 -89.9887 -99.5356 0 8.7983 -4.7612 0.295089 2.02038 -0.151484 -8.32667e-017 8.0291 0.4195 0.596083 4.03996 -0.313679 0 9.9351 -2.2114 0.596081 4.03994 -0.313678 -2.22045e-016 22.3885 -0.4656 -3.35623e-006 -3.06233 1.71794e-006 -0.0001 12.643 3.4389 3.29433e-007 -6.05349 1.05745e-007 2.2603 21.606 7.4023 12.3698 -25.4929 -21.4988 13.5163 -1.1332 -5.0146 48.5185 -34.1106 79.3501 -0.0995 -28.05 -0.2431 -160.083 -48.2047 -140.531 0.0679 -23.3996 -0.1402 -12.3365 17.3439 9.88722 0.7932 -9.069 2.5189 -3.18055e-015 0 1.59028e-015 -0.8272 -3.3923 0.5977 -2.75869e-032 7.95139e-016 1.98785e-015 -0.5649 -2.3158 0.4082 -0 0 1.59028e-015 0.9159 -9.2044 0.2193 -3.18055e-015 0 1.59028e-015 0.0117 -4.1944 -0.0248 -0.0128207 0.00233047 8.32146e-005 0.0071 -2.3249 -0.0142 3.18055e-015 3.97569e-016 -1.98785e-016 0.6113 -8.7231 -2.0637 -3.18055e-015 0 1.59028e-015 -0.1927 -3.8059 -0.2383 -0.016043 0.0029883 0.000866592 -0.1091 -2.1688 -0.1362 1.37935e-033 -3.97569e-016 1.98785e-016 -0.6151 -8.0947 -3.5641 -3.18055e-015 0 1.59028e-015 -0.4882 -2.341 -0.6462 -0.0125673 0.00310734 0.00281994 -0.3575 -1.7167 -0.4742 6.36111e-015 3.97569e-016 -9.93923e-016 -1.42 -1.8761 1.4223 -3.18055e-015 0 1.59028e-015 -1.1471 -3.4929 2.6334 -2.75869e-032 7.95139e-016 1.98785e-015 -0.823 -2.3 1.6571 -0 0 1.59028e-015 -2.2603 21.606 7.4023 -13.3722 -25.4512 15.4562 -13.5187 -1.1334 -5.0155 -45.3877 -38.9499 -73.9691 0.0994001 -28.0499 -0.2431 148.693 -63.7817 129.489 -0.0679 -23.3996 -0.1402 22.5029 11.6751 -10.8161 -0.7932 -9.0691 2.5189 -3.18055e-015 3.18055e-015 -1.59028e-015 0.8272 -3.3923 0.5977 2.20695e-032 1.59028e-015 -7.95139e-016 0.565 -2.3158 0.4082 2.20695e-032 1.59028e-015 -7.95139e-016 -0.916 -9.2044 0.2193 -3.18055e-015 3.18055e-015 -1.59028e-015 -0.0117 -4.1944 -0.0248 0.0129472 0.00230138 -8.87273e-005 -0.0071 -2.3249 -0.0142 -6.36111e-015 3.18055e-015 -1.59028e-015 -0.6113 -8.7231 -2.0637 -3.18055e-015 3.18055e-015 -1.59028e-015 0.1927 -3.8059 -0.2383 0.0163355 0.0030387 -0.000868213 0.1091 -2.1688 -0.1362 6.36111e-015 -1.59028e-015 -7.95139e-016 0.6151 -8.0947 -3.564 -3.18055e-015 3.18055e-015 -1.59028e-015 0.4882 -2.341 -0.6462 0.0145885 0.00368168 -0.00327079 0.3574 -1.7166 -0.4742 3.18055e-015 -3.18055e-015 -0 1.4199 -1.8761 1.4221 -3.18055e-015 3.18055e-015 -1.59028e-015 1.1472 -3.4929 2.6336 2.20695e-032 1.59028e-015 -7.95139e-016 0.8229 -2.3 1.6571 2.20695e-032 1.59028e-015 -7.95139e-016 -9.412 3.9771 -0.7758 -13.637 -32.949 -11.56 -0.7531 -40.938 0 -130.049 84.912 127.952 0 -40.1986 0 0.843525 27.1037 -5.52675 3.55271e-015 -4.4182 9.239 1.98785e-016 -1.59028e-015 -3.18055e-015 9.4119 3.9773 -0.7758 13.632 -32.9489 11.5547 0.7532 -40.9383 1.42109e-014 130.051 84.9121 -127.959 -1.77636e-015 -40.1986 0 -0.845235 27.1031 5.52339 0 -4.4182 9.239 -9.67118e-007 2.90069e-007 -1.60823e-006 
0.495481 0.567459 67.922 -99.5468 -89.9887 -99.5356 0 8.7983 -4.7612 0.295272 2.15083 -0.151037 8.32667e-017 8.0291 0.4195 0.596854 4.30084 -0.313504 0 9.9351 -2.2114 0.596855 4.30084 -0.313505 0 22.3885 -0.4656 -6.35876e-006 -3.74634 3.3162e-006 -0.0001 12.643 3.4389 1.56873e-007 -6.73759 1.20369e-007 2.2603 21.606 7.4023 12.6301 -26.26 -21.2232 13.5163 -1.1332 -5.0146 48.177 -34.2746 79.4438 -0.0995 -28.05 -0.2431 -159.874 -48.5781 -140.347 0.0679 -23.3996 -0.1402 -13.1127 15.7664 10.5827 0.7932 -9.069 2.5189 6.36111e-015 -1.59028e-015 1.98785e-016 -0.8272 -3.3923 0.5977 9.54166e-015 -1.19271e-015 -7.95139e-016 -0.5649 -2.3158 0.4082 9.54166e-015 -1.19271e-015 -3.97569e-016 0.9159 -9.2044 0.2193 6.36111e-015 -1.59028e-015 1.98785e-016 0.0117 -4.1944 -0.0248 -0.0128203 0.00233795 8.45063e-005 0.0071 -2.3249 -0.0142 -3.18055e-015 0 -0 0.6113 -8.7231 -2.0637 6.36111e-015 -1.59028e-015 1.98785e-016 -0.1927 -3.8059 -0.2383 -0.0160393 0.00299087 0.000853104 -0.1091 -2.1688 -0.1362 2.75869e-033 7.95139e-016 -1.98785e-016 -0.6151 -8.0947 -3.5641 6.36111e-015 -1.59028e-015 1.98785e-016 -0.4882 -2.341 -0.6462 -0.0126034 0.00313358 0.00283682 -0.3575 -1.7167 -0.4742 0 0 -7.95139e-016 -1.42 -1.8761 1.4223 6.36111e-015 -1.59028e-015 1.98785e-016 -1.1471 -3.4929 2.6334 9.54166e-015 -1.19271e-015 -7.95139e-016 -0.823 -2.3 1.6571 9.54166e-015 -1.19271e-015 -3.97569e-016 -2.2603 21.606 7.4023 -13.6399 -26.2145 15.1745 -13.5187 -1.1334 -5.0155 -45.4175 -38.7463 -73.9659 0.0994 -28.0499 -0.2431 148.335 -64.0365 129.149 -0.0679 -23.3996 -0.1402 23.2809 10.0724 -11.165 -0.7932 -9.0691 2.5189 1.10348e-032 -7.95139e-016 7.95139e-016 0.8272 -3.3923 0.5977 1.10348e-031 -3.97569e-015 1.59028e-015 0.565 -2.3158 0.4082 3.18055e-015 -3.18055e-015 -0 -0.916 -9.2044 0.2193 1.10348e-032 -7.95139e-016 7.95139e-016 -0.0117 -4.1944 -0.0248 0.0129686 0.00231699 -8.5981e-005 -0.0071 -2.3249 -0.0142 3.18055e-015 -1.59028e-015 3.97569e-016 -0.6113 -8.7231 -2.0637 1.10348e-032 -7.95139e-016 7.95139e-016 0.1927 -3.8059 -0.2383 0.016361 0.00304717 -0.000877451 0.1091 -2.1688 -0.1362 9.93129e-032 -1.43125e-014 3.97569e-016 0.6151 -8.0947 -3.564 1.10348e-032 -7.95139e-016 7.95139e-016 0.4882 -2.341 -0.6462 0.0145917 0.00367778 -0.0032677 0.3574 -1.7166 -0.4742 3.18055e-015 -1.59028e-015 1.59028e-015 1.4199 -1.8761 1.4221 1.10348e-032 -7.95139e-016 7.95139e-016 1.1472 -3.4929 2.6336 1.10348e-031 -3.97569e-015 1.59028e-015 0.8229 -2.3 1.6571 3.18055e-015 -3.18055e-015 -0 -9.412 3.9771 -0.7758 -13.6369 -32.949 -11.56 -0.7531 -40.938 -7.10543e-015 -130.049 84.912 127.952 -3.55271e-015 -40.1986 1.42109e-014 0.843535 27.1037 -5.52677 1.06581e-014 -4.4182 9.239 -2.5842e-015 0 -3.18055e-015 9.4119 3.9773 -0.7758 13.632 -32.9489 11.5547 0.7532 -40.9383 7.10543e-015 130.051 84.9121 -127.959 3.55271e-015 -40.1986 1.42109e-014 -0.845235 27.1031 5.5234 -3.55271e-015 -4.4182 9.239 -8.44245e-007 2.52635e-007 2.73602e-008 
